HIERARCHY
ROOT Hips
{
	OFFSET 0.000000 89.005402 0.000000
	CHANNELS 6 Xposition Yposition Zposition Xrotation Yrotation Zrotation
	JOINT Spine
	{
		OFFSET 0.116900 10.681000 0.373400
		CHANNELS 3 Xrotation Yrotation Zrotation
		JOINT Spine1
		{
			OFFSET 0.000000 13.840401 0.053500
			CHANNELS 3 Xrotation Yrotation Zrotation
			JOINT Spine2
			{
				OFFSET 0.000000 14.712700 -0.366200
				CHANNELS 3 Xrotation Yrotation Zrotation
				JOINT Neck
				{
					OFFSET 0.000000 35.415497 -3.314200
					CHANNELS 3 Xrotation Yrotation Zrotation
					JOINT Head
					{
						OFFSET 0.000000 16.899200 1.218300
						CHANNELS 3 Xrotation Yrotation Zrotation
						JOINT HeadTop_End
						{
							OFFSET 0.000000 22.206207 2.192500
							CHANNELS 3 Xrotation Yrotation Zrotation
							End Site
							{
								OFFSET 0.000000 22.314178 0.000000
							}
						}
					}
				}
				JOINT LeftShoulder
				{
					OFFSET 12.896400 26.716293 -4.548400
					CHANNELS 3 Xrotation Yrotation Zrotation
					JOINT LeftArm
					{
						OFFSET 19.027000 -4.857010 -1.718400
						CHANNELS 3 Xrotation Yrotation Zrotation
						JOINT LeftForeArm
						{
							OFFSET 24.179897 0.000000 0.000000
							CHANNELS 3 Xrotation Yrotation Zrotation
							JOINT LeftHand
							{
								OFFSET 27.156403 0.000000 0.000000
								CHANNELS 3 Xrotation Yrotation Zrotation
								JOINT LeftHandIndex1
								{
									OFFSET 16.441200 0.000000 0.000000
									CHANNELS 3 Xrotation Yrotation Zrotation
									JOINT LeftHandIndex2
									{
										OFFSET 4.821899 0.000000 0.000000
										CHANNELS 3 Xrotation Yrotation Zrotation
										JOINT LeftHandIndex3
										{
											OFFSET 6.386497 0.000000 0.000000
											CHANNELS 3 Xrotation Yrotation Zrotation
											JOINT LeftHandIndex4
											{
												OFFSET 5.188988 0.000000 0.000000
												CHANNELS 3 Xrotation Yrotation Zrotation
												End Site
												{
													OFFSET -0.178703 5.185913 0.000177
												}
											}
										}
									}
								}
								JOINT LeftHandThumb1
								{
									OFFSET 6.534897 -5.032593 5.900300
									CHANNELS 3 Xrotation Yrotation Zrotation
									JOINT LeftHandThumb2
									{
										OFFSET 3.818176 -2.204422 2.204423
										CHANNELS 3 Xrotation Yrotation Zrotation
										JOINT LeftHandThumb3
										{
											OFFSET 3.252098 -1.877594 1.877601
											CHANNELS 3 Xrotation Yrotation Zrotation
											JOINT LeftHandThumb4
											{
												OFFSET 5.251778 -3.032120 3.032117
												CHANNELS 3 Xrotation Yrotation Zrotation
												End Site
												{
													OFFSET 0.000023 6.780014 0.000000
												}
											}
										}
									}
								}
							}
						}
					}
				}
				JOINT RightShoulder
				{
					OFFSET -12.896300 26.716293 -4.548400
					CHANNELS 3 Xrotation Yrotation Zrotation
					JOINT RightArm
					{
						OFFSET -19.027000 -4.857010 -1.718400
						CHANNELS 3 Xrotation Yrotation Zrotation
						JOINT RightForeArm
						{
							OFFSET -24.179897 0.000000 0.000000
							CHANNELS 3 Xrotation Yrotation Zrotation
							JOINT RightHand
							{
								OFFSET -27.156403 0.000000 0.000000
								CHANNELS 3 Xrotation Yrotation Zrotation
								JOINT RightHandThumb1
								{
									OFFSET -6.591202 -4.852203 5.988100
									CHANNELS 3 Xrotation Yrotation Zrotation
									JOINT RightHandThumb2
									{
										OFFSET -3.818176 -2.204422 2.204423
										CHANNELS 3 Xrotation Yrotation Zrotation
										JOINT RightHandThumb3
										{
											OFFSET -3.252098 -1.877594 1.877601
											CHANNELS 3 Xrotation Yrotation Zrotation
											JOINT RightHandThumb4
											{
												OFFSET -5.251778 -3.032120 3.032117
												CHANNELS 3 Xrotation Yrotation Zrotation
												End Site
												{
													OFFSET -0.000023 6.780014 0.000000
												}
											}
										}
									}
								}
								JOINT RightHandIndex1
								{
									OFFSET -16.029404 0.000000 0.000000
									CHANNELS 3 Xrotation Yrotation Zrotation
									JOINT RightHandIndex2
									{
										OFFSET -5.213303 0.000000 0.000000
										CHANNELS 3 Xrotation Yrotation Zrotation
										JOINT RightHandIndex3
										{
											OFFSET -6.386528 0.000000 0.000000
											CHANNELS 3 Xrotation Yrotation Zrotation
											JOINT RightHandIndex4
											{
												OFFSET -5.189026 0.000000 0.000000
												CHANNELS 3 Xrotation Yrotation Zrotation
												End Site
												{
													OFFSET 0.236702 5.183624 0.001972
												}
											}
										}
									}
								}
							}
						}
					}
				}
			}
		}
	}
	JOINT LeftUpLeg
	{
		OFFSET 14.073000 -7.904099 -1.463000
		CHANNELS 3 Xrotation Yrotation Zrotation
		JOINT LeftLeg
		{
			OFFSET -0.109806 -34.073280 4.093200
			CHANNELS 3 Xrotation Yrotation Zrotation
			JOINT LeftFoot
			{
				OFFSET 0.109806 -29.899420 -6.319000
				CHANNELS 3 Xrotation Yrotation Zrotation
				JOINT LeftToeBase
				{
					OFFSET 1.551100 -14.988700 20.535801
					CHANNELS 3 Xrotation Yrotation Zrotation
					JOINT LeftToe_End
					{
						OFFSET 0.221200 0.570800 13.248301
						CHANNELS 3 Xrotation Yrotation Zrotation
						End Site
						{
							OFFSET 0.000000 13.262435 0.000000
						}
					}
				}
			}
		}
	}
	JOINT RightUpLeg
	{
		OFFSET -13.839300 -7.904099 -1.463000
		CHANNELS 3 Xrotation Yrotation Zrotation
		JOINT RightLeg
		{
			OFFSET 0.109694 -34.073219 4.093300
			CHANNELS 3 Xrotation Yrotation Zrotation
			JOINT RightFoot
			{
				OFFSET -0.109694 -29.899384 -6.319200
				CHANNELS 3 Xrotation Yrotation Zrotation
				JOINT RightToeBase
				{
					OFFSET -1.551100 -14.988700 20.535801
					CHANNELS 3 Xrotation Yrotation Zrotation
					JOINT RightToe_End
					{
						OFFSET -0.221200 0.570900 13.248299
						CHANNELS 3 Xrotation Yrotation Zrotation
						End Site
						{
							OFFSET 0.000000 13.262440 0.000000
						}
					}
				}
			}
		}
	}
}
MOTION
Frames: 4
Frame Time: 0.033333
-0.325630 52.525787 5.702908 -25.046983 -11.469085 0.771080 6.733688 -2.731764 -1.722633 13.877847 -3.501884 1.422232 13.832521 -3.742232 1.191612 4.772452 12.163337 -3.024156 -6.933442 2.380107 5.194965 -0.000000 0.000000 -0.000001 1.024073 1.981322 -11.896999 -9.295600 -33.968689 -62.328174 -0.000028 -46.651626 -0.000031 41.399460 15.620952 24.093880 0.144357 1.405341 -11.729112 0.029064 0.633280 -5.255184 0.007267 0.316974 -2.627514 0.000000 -0.000000 -0.000000 1.616987 -5.007511 -0.285538 6.748330 19.574132 -7.964961 0.516831 7.464222 -1.486811 0.000001 -0.000000 -0.000002 0.543426 4.725580 11.830293 32.932850 6.756698 44.643998 0.000001 113.828654 -0.000010 -16.068452 13.118802 -30.803084 21.658421 -10.007357 15.733216 2.221025 -15.029963 -0.723458 -2.440500 -3.066234 -2.239090 -0.000002 0.000003 -0.000001 1.209601 -3.923945 34.253149 0.176342 -1.559089 12.905323 0.044230 -0.784512 6.451467 0.000000 -0.000000 0.000004 -58.284559 0.572747 16.862883 93.841144 1.420554 -0.248683 -8.859171 1.187270 -6.771690 -0.000006 -0.000001 0.000002 -0.000000 0.000001 0.000000 -69.411565 -3.316803 -9.077087 85.164406 -0.427770 0.040879 5.017725 -0.245710 -7.182060 0.000002 0.000006 0.000002 -0.000000 -0.000001 0.000000 
-0.316761 52.530579 5.685307 -25.082350 -11.475609 0.781458 6.778278 -2.765155 -1.708724 13.976080 -3.565691 1.447610 13.929899 -3.807650 1.216663 4.146751 11.777737 -2.649905 -7.972149 0.434012 6.521889 -0.000000 -0.000001 -0.000001 1.027859 1.958270 -11.895981 -9.157463 -34.003485 -62.091132 0.000003 -46.808564 0.000019 41.224863 15.774639 24.113291 0.144357 1.405340 -11.729115 0.029064 0.633281 -5.255189 0.007267 0.316973 -2.627517 -0.000000 0.000000 0.000000 1.616988 -5.007511 -0.285542 6.748330 19.574130 -7.964959 0.516832 7.464222 -1.486812 -0.000000 0.000002 0.000001 0.543539 4.715280 11.829895 32.792770 7.011951 44.475463 0.000122 113.729132 -0.000108 -12.768909 11.973722 -34.791409 21.658421 -10.007358 15.733218 2.221026 -15.029961 -0.723457 -2.440500 -3.066229 -2.239090 -0.000001 -0.000005 -0.000000 1.209600 -3.923945 34.253149 0.176343 -1.559088 12.905324 0.044229 -0.784512 6.451465 -0.000000 0.000000 -0.000000 -58.256398 0.645414 16.870308 93.813379 1.404469 -0.249266 -8.844047 1.180042 -6.715099 -0.000006 -0.000002 0.000002 -0.000000 -0.000000 0.000000 -69.372981 -3.317956 -9.081634 85.145603 -0.446459 0.038673 5.006818 -0.244692 -7.237364 0.000001 0.000007 0.000002 -0.000000 -0.000001 -0.000000 
-0.310461 52.530647 5.669067 -25.119073 -11.490040 0.804657 6.804158 -2.790603 -1.681695 14.037799 -3.612273 1.498367 13.991704 -3.854963 1.266868 3.370181 11.360231 -2.177096 -9.052699 -1.474766 7.548660 -0.000000 0.000000 0.000002 1.031177 1.937227 -11.893555 -9.013276 -34.212896 -61.869247 -0.000011 -46.789429 -0.000009 40.914226 16.046922 24.112456 0.144358 1.405340 -11.729112 0.029064 0.633281 -5.255194 0.007267 0.316973 -2.627513 0.000000 -0.000000 0.000003 1.616988 -5.007512 -0.285538 6.748330 19.574132 -7.964959 0.516831 7.464223 -1.486815 0.000001 -0.000001 0.000001 0.544670 4.701309 11.830471 32.835615 7.253190 44.373331 -0.000000 113.845129 -0.000008 -9.018256 10.074085 -38.485179 21.658417 -10.007356 15.733220 2.221023 -15.029961 -0.723457 -2.440503 -3.066227 -2.239090 -0.000002 -0.000004 -0.000000 1.209600 -3.923945 34.253149 0.176343 -1.559087 12.905326 0.044229 -0.784511 6.451465 -0.000000 -0.000001 -0.000001 -58.225416 0.730836 16.879938 93.789508 1.383453 -0.249882 -8.833574 1.173403 -6.661862 -0.000006 -0.000002 0.000002 -0.000000 -0.000000 -0.000000 -69.345360 -3.303583 -9.079750 85.139319 -0.473882 0.036450 4.990713 -0.242676 -7.298469 0.000001 0.000008 0.000002 -0.000000 -0.000001 -0.000000 
-0.307410 52.526787 5.653564 -25.161298 -11.512567 0.837108 6.813308 -2.832345 -1.646169 14.068392 -3.696836 1.571398 14.022360 -3.938027 1.342269 2.560224 10.996697 -1.678062 -10.178798 -3.057971 8.470585 0.000000 0.000000 -0.000002 1.034018 1.917495 -11.890288 -8.841524 -34.417873 -61.647074 -0.000001 -46.618520 -0.000004 40.521894 16.209449 24.220039 0.144357 1.405342 -11.729118 0.029064 0.633280 -5.255192 0.007267 0.316974 -2.627516 -0.000000 0.000000 0.000001 1.616987 -5.007511 -0.285540 6.748331 19.574134 -7.964959 0.516831 7.464222 -1.486814 -0.000000 -0.000001 -0.000002 0.546792 4.680988 11.833146 32.936019 7.694994 44.164935 0.000009 113.788629 -0.000004 -4.643499 8.771331 -42.191571 21.658421 -10.007360 15.733218 2.221027 -15.029963 -0.723455 -2.440500 -3.066230 -2.239089 -0.000001 -0.000001 0.000001 1.209600 -3.923945 34.253146 0.176343 -1.559089 12.905324 0.044229 -0.784511 6.451466 0.000001 -0.000001 0.000001 -58.184858 0.821853 16.894215 93.769611 1.357950 -0.251079 -8.828838 1.167977 -6.615936 -0.000006 -0.000003 0.000002 0.000000 -0.000001 -0.000000 -69.325081 -3.268878 -9.076312 85.141785 -0.489577 0.034726 4.992258 -0.240674 -7.339512 0.000001 0.000006 0.000002 0.000000 -0.000001 -0.000000 
